<svg enable-background="new 0 0 1024 1024" height="1024" image-rendering="optimizeSpeed" viewBox="0 0 1024 1024" width="1024" xmlns="http://www.w3.org/2000/svg" xmlns:xlink="http://www.w3.org/1999/xlink"><mask id="a"><path d="m845.8 178.25c-.35-.35-.65-.65-1-1-72.45-72.05-156.7-115.75-252.65-131.05-16.25-2.6-32.8-4.4-50.05-5.35-9.7-.55-19.85-.85-30.1-.85-9.35 0-18.6.25-27.9.75-118.35 6.1-220.3 51.95-305.85 137.5q-138.25 138.25-138.25 333.75c0 129.9 45.75 240.85 137.25 332.8.35.35.65.65 1 1 56.7 56.65 120.55 95.9 191.1 117.55 36.75 11.25 74.8 17.85 114.75 19.95h.4c8.5.45 16.6.7 24.5.7h3c10.3 0 20.5-.3 30.1-.8 2.5-.15 4.75-.3 6.95-.45 20.2-1.45 39.9-4.05 58.7-7.7 7.95-1.55 15.8-3.3 23.4-5.15 80.8-20.3 152.15-61.6 214.65-124.1 48.6-48.6 84.4-102.5 107.35-161.8 18.45-47.65 28.65-98.8 30.55-153.5.2-6.05.3-12.25.3-18.5 0-.65 0-1.35 0-2 0-.35 0-.65 0-1-.2-40.65-4.95-79.5-14.3-117-1.1-4.35-2.35-9-3.65-13.6-1-3.4-2-6.85-3.15-10.5-1.6-5.15-3.4-10.5-5.3-15.85-6.45-18.25-14.15-36.05-23.15-53.65-3.8-7.4-7.95-14.95-12.3-22.4-20.3-34.5-45.8-67.2-76.35-97.75z" fill="#fff" image-rendering="optimizeSpeed"/></mask><path d="m969.6 351.25q-8.6-20.85-19.4-40.85c-4.05-7.55-8.35-15.05-12.9-22.4-19.55-31.7-43.4-61.65-71.55-89.8-92.15-92.15-203.45-138.25-333.8-138.25s-241.6 46.1-333.75 138.25-138.25 203.4-138.25 333.75 46.1 241.65 138.25 333.8 203.4 138.2 333.75 138.2 241.65-46.05 333.8-138.2c50.75-50.8 87.55-107.4 110.35-169.75 18.55-50.85 27.85-105.5 27.85-164.05 0-44.9-5.45-87.55-16.4-127.95-1.25-4.55-2.55-9.1-3.9-13.6-4.1-13.3-8.8-26.35-14.05-39.15z" fill-opacity=".098039"/><path d="m845.8 178.25c-.35-.35-.65-.65-1-1-72.45-72.05-156.7-115.75-252.65-131.05-16.25-2.6-32.8-4.4-50.05-5.35-9.7-.55-19.85-.85-30.1-.85-9.35 0-18.6.25-27.9.75-118.35 6.1-220.3 51.95-305.85 137.5q-138.25 138.25-138.25 333.75c0 129.9 45.75 240.85 137.25 332.8.35.35.65.65 1 1 56.7 56.65 120.55 95.9 191.1 117.55 36.75 11.25 74.8 17.85 114.75 19.95h.4c8.5.45 16.6.7 24.5.7h3c10.3 0 20.5-.3 30.1-.8 2.5-.15 4.75-.3 6.95-.45 20.2-1.45 39.9-4.05 58.7-7.7 7.95-1.55 15.8-3.3 23.4-5.15 80.8-20.3 152.15-61.6 214.65-124.1 48.6-48.6 84.4-102.5 107.35-161.8 18.45-47.65 28.65-98.8 30.55-153.5.2-6.05.3-12.25.3-18.5 0-.65 0-1.35 0-2 0-.35 0-.65 0-1-.2-40.65-4.95-79.5-14.3-117-1.1-4.35-2.35-9-3.65-13.6-1-3.4-2-6.85-3.15-10.5-1.6-5.15-3.4-10.5-5.3-15.85-6.45-18.25-14.15-36.05-23.15-53.65-3.8-7.4-7.95-14.95-12.3-22.4-20.3-34.5-45.8-67.2-76.35-97.75z" fill="#333"/><path d="m757.975 393.625-20.825-20.825-401.75 167.2-67.075-67.075-107.325-20.925-64 63 4 78 31.775 59.175 329.525 329.525c7.45.7 14.6 1.2 21.8 1.6h.4c8.5.45 16.6.7 24.5.7q1.5 0 3 0c10.3 0 20.5-.3 30.1-.8 2.5-.15 4.75-.3 6.95-.45 20.2-1.45 39.9-4.05 58.7-7.7 7.95-1.55 15.8-3.3 23.4-5.15 80.8-20.3 152.15-61.6 214.65-124.1 48.6-48.6 84.4-102.5 107.35-161.8 18.45-47.65 28.65-98.8 30.55-153.5.2-6.05.3-12.25.3-18.5 0-.65 0-1.35 0-2 0-.35 0-.65 0-1-.2-40.65-4.95-79.5-14.3-117-1.1-4.35-2.35-9-3.65-13.6-1-3.4-2-6.85-3.15-10.5-1.6-5.15-3.4-10.5-5.3-15.85-2.15-6.15-4.45-12.25-6.95-18.35l-.025-.025-111.075-111.075-76.3 145.35 14.75 14.75z" fill-opacity=".2"/><path d="m690.15 677.15v-28.7c-162.5-.1-325.2-.2-487.9-.3-20.65-1.6-41.05-9.3-57.55-22.45-39.7-31.8-50.05-92.45-17.2-132.15 26.6-32.45 76.8-40.25 109-12.55 25 21.4 30.95 61.05 8.5 85.5-16.2 17.7-45.35 21.9-62.25 4.8-5.2-5.3-8.85-13.7-9.2-21.05-.2-7.45 1.85-13.4 7.55-18.05 1.65-1.3 5.2-1.9 8.2-2.4-2.85 3.15-4.25 7.4-3.65 11.6s3 8 6.65 10.15c4.75 3.2 12.5 4.75 18.65 2.05 6.25-2.65 8.85-7.5 10.55-11.2 3.3-7.55 4.75-13.7.7-22.7-5.6-12.45-18.25-18.45-29.2-19.1-11-.5-21.55 2.8-29.95 9.55-13.05 10.6-18.55 26.6-17.9 41.4.65 14.9 6.8 29.05 17.2 39.8 29.6 29.85 77.35 23.35 103.65-5.4 34.2-37.5 25.65-95.45-10.8-126.7-45.15-38.8-113.2-27.85-149.5 16.25q-15.9 19.35-22.35 43.55-6.1 23-2.8 47.15c4.35 31.35 20.65 61.3 46.6 81.95 16.9 13.45 36.2 22.3 57.85 26.45 5.45 1.1 10.95 1.85 16.45 2.25v.05c175.8.1 335.2.2 488.7.25z" fill="#00a3cc"/><g mask="url(#a)"><path d="m1077.3 391-53.4-103.8c-36.4-3.3-69.75-2.65-99.9 1.95v406.75h143.55c12.1 0 18.15-6.05 18.15-18.15v-270.5c0-8-2.65-13.35-8.4-16.25zm-211.3-86.8c-20.6 7.85-39.25 18.2-56 30.95v-.025 360.775h56v-391.725z" fill="#6e47b8"/><path d="m924 289.15c-20.85 3.2-40.15 8.2-58 15.05v-.025 391.725h58zm-175.9 388.6c0 12.1 6.05 18.15 18.15 18.15h43.75v-360.775.025c-24.75 18.85-45.35 42.85-61.9 72.1z" fill="#55388d"/><path d="m737.15 372.8q0-18.15-18.15-18.15h-137.95c-164.2 4.25-252.2 102.85-263.85 295.8h331c3.5 0 6.55 1.3 9.05 3.8s3.75 5.45 3.75 8.95-1.25 6.55-3.75 9.05-5.55 3.7-9.05 3.7h-331.65c-.15 0-.3 0-.4 0 0 2.6-.05 4.9-.1 7.25 0 12.1 6.05 18.15 18.15 18.15h384.8c12.15 0 18.15-6.05 18.15-18.15zm-150.45 201.65c-15.6 15.6-34.4 23.4-56.45 23.4s-40.9-7.8-56.5-23.4c-15.6-15.55-23.4-34.4-23.4-56.45s7.8-40.9 23.4-56.5c15.6-15.55 34.45-23.35 56.5-23.35s40.85 7.8 56.45 23.35c15.6 15.6 23.4 34.45 23.4 56.5s-7.8 40.9-23.4 56.45zm245.05-354.45c-1.35 0-2.65.15-3.8.55-1.75.5-3.3 1.35-4.7 2.55l-60 144.85c29.6-40.9 69.15-67.25 118.55-79.2l-42.25-66.15c-2.25-1.75-4.85-2.6-7.8-2.6z" fill="#6e46b8"/><path d="m586.7 574.45c15.6-15.55 23.4-34.4 23.4-56.45s-7.8-40.9-23.4-56.5c-15.6-15.55-34.4-23.35-56.45-23.35s-40.9 7.8-56.5 23.35c-15.6 15.6-23.4 34.45-23.4 56.5s7.8 40.9 23.4 56.45c15.6 15.6 34.45 23.4 56.5 23.4s40.85-7.8 56.45-23.4zm-80.05-121.05c6.5 0 12.05 2.35 16.65 6.9 4.6 4.65 6.95 10.25 6.95 16.7 0 6.5-2.35 12.1-6.95 16.7s-10.15 6.9-16.65 6.9-12.1-2.3-16.7-6.9-6.9-10.2-6.9-16.7c0-6.45 2.3-12.05 6.9-16.7 4.6-4.55 10.2-6.9 16.7-6.9z" fill="#fff"/><path d="m506.65 453.4c-6.5 0-12.1 2.35-16.7 6.9-4.6 4.65-6.9 10.25-6.9 16.7 0 6.5 2.3 12.1 6.9 16.7s10.2 6.9 16.7 6.9 12.05-2.3 16.65-6.9 6.95-10.2 6.95-16.7c0-6.45-2.35-12.05-6.95-16.7-4.6-4.55-10.15-6.9-16.65-6.9z"/></g></svg>